<svg xmlns="http://www.w3.org/2000/svg" xmlns:xlink="http://www.w3.org/1999/xlink" width="40" height="40" viewBox="0 0 40 40">
    <defs>
        <path id="a" d="M0 36.954h39.732V0H0z"/>
    </defs>
    <g fill="none" fill-rule="evenodd" transform="translate(0 1.333)">
        <mask id="b" fill="#fff">
            <use xlink:href="#a"/>
        </mask>
        <path fill="#FFF" d="M38.358 35.328a.632.632 0 0 1-.566.336h-20.03a.632.632 0 0 1-.566-.336.632.632 0 0 1 .022-.658l7.737-12.106.011-.019.888-1.389 1.45.813a.975.975 0 0 0 .946 0l1.45-.813 8.636 13.514a.632.632 0 0 1 .022.658zm-32.679.008a.636.636 0 0 1 .01-.652l6.433-10.655c.005-.006.007-.013.012-.019l3.755-6.22 2.1 1.176a.967.967 0 0 0 .947 0l2.099-1.176 2.642 4.377-7.546 11.809a1.894 1.894 0 0 0-.177 1.688H6.241a.634.634 0 0 1-.562-.328zm-4.305-.008a.632.632 0 0 1 .022-.658l6.392-10.002 1.686.945c.05.028.105.041.158.041h.002l-5.05 8.364a1.9 1.9 0 0 0-.152 1.646H1.94a.632.632 0 0 1-.566-.336zm7.714-12.695c.242-.379.845-.378 1.087 0l.66 1.031-.92 1.525a.322.322 0 0 0-.126-.14l-1.653-.925.952-1.49zm8.822-8.19a.632.632 0 0 1 .552-.31c.11 0 .382.029.552.31l1.686 2.794-2.08 1.167a.323.323 0 0 1-.316 0l-2.081-1.167 1.687-2.794zM23.381 1.74V7.222h-4.597V1.74h4.597zm4.061.725c.184 0 .347.097.435.258.087.162.08.35-.02.506l-.829 1.278a1.141 1.141 0 0 0 0 1.24l.829 1.278c.1.154.107.343.02.504a.487.487 0 0 1-.435.259h-3.416V2.465h3.416zm-.209 16.534a.634.634 0 0 1 .544-.297c.224 0 .423.108.543.297l1.032 1.613-1.417.795a.322.322 0 0 1-.316 0l-1.417-.795 1.031-1.613zm12.19 14.978L29.408 18.303a1.929 1.929 0 0 0-1.63-.893c-.665 0-1.274.334-1.632.893l-1.694 2.65-4.333-7.176a1.906 1.906 0 0 0-1.335-.895V7.868h4.597v.242c0 .178.145.322.323.322h3.738c.425 0 .798-.222 1.002-.595a1.126 1.126 0 0 0-.046-1.165l-.83-1.277a.494.494 0 0 1 .001-.538l.829-1.278c.23-.357.248-.791.046-1.164a1.123 1.123 0 0 0-1.002-.596h-3.416v-.403a.322.322 0 0 0-.322-.323h-4.92v-.77a.322.322 0 1 0-.645 0v12.559a1.908 1.908 0 0 0-1.334.895l-5.226 8.655-.316-.494a1.93 1.93 0 0 0-1.63-.893c-.665 0-1.274.334-1.633.894L.308 33.976a1.912 1.912 0 0 0-.066 1.972c.345.63.98 1.006 1.698 1.006h35.852a1.91 1.91 0 0 0 1.697-1.006c.346-.63.321-1.367-.066-1.972z" mask="url(#b)"/>
    </g>
</svg>
